# xmcd
#
# Track frame offsets: 
#        150
#        11524
#        19880
#        27992
#        40351
#        55145
#        64818
#        80070
#        87963
#        109572
#        121738
#        133820
#        158771
#        164008
#        173422
#        186273
#        196881
#        206064
#
# Disc length: 3053 seconds
#
# Revision: 1
# Processed by: cddbd v1.5.2PL0 Copyright (c) Steve Scherf et al.
# Submitted via: ExactAudioCopy v0.90b4
#
DISCID=f10beb12
DTITLE=Heinz Sauer and Michael Wollny - Melancholia
DYEAR=2005
DGENRE=Jazz
TTITLE0=ABC
TTITLE1=Space Cake
TTITLE2=Dry Icarus
TTITLE3=Crows On The Roof
TTITLE4=Welcome To What You Think You Hear
TTITLE5=Blue Print
TTITLE6=Deep River
TTITLE7=Sculptor
TTITLE8=Out Of Diversity
TTITLE9=Trouble With Mutation
TTITLE10=Dreaming Field
TTITLE11=Round Midnight
TTITLE12=Melancholia
TTITLE13=Deep Sea
TTITLE14=Seven Sharp
TTITLE15=Ursa Minor
TTITLE16=Welcome To What You Hear
TTITLE17=Don't Explain
EXTD=YEAR: 2005
EXTT0=
EXTT1=
EXTT2=
EXTT3=
EXTT4=
EXTT5=
EXTT6=
EXTT7=
EXTT8=
EXTT9=
EXTT10=
EXTT11=
EXTT12=
EXTT13=
EXTT14=
EXTT15=
EXTT16=
EXTT17=
PLAYORDER=
